<svg width="22" height="24" fill="none" xmlns="http://www.w3.org/2000/svg"><mask id="a" maskUnits="userSpaceOnUse" x="0" y="0" width="22" height="24" fill="#000"><path fill="#fff" d="M0 0h22v24H0z"/><path fill-rule="evenodd" clip-rule="evenodd" d="M11.505 22.0025C13.535 20.9625 21 16.71 21 10.375 21 4.75 16.3337 1 11 1 5.845 1 1 4.75 1 10.375c0 6.335 7.465 10.5875 9.495 11.6275.1561.0807.3293.1228.505.1228.1757 0 .3489-.0421.505-.1228Zm-.7937-7.5563-3.4988-3.6837c-.21979-.2334-.38736-.5108-.49156-.81401a2.257445 2.257445 0 0 1-.11276-.9442 2.257517 2.257517 0 0 1 .28604-.90688 2.25745 2.25745 0 0 1 1.50374-1.09329 2.257583 2.257583 0 0 1 .95088.00756 2.25811 2.25811 0 0 1 .86346.39844c.2562.19261.4685.43759.6227.71863l.0875.16c.0074.01414.0186.02598.0322.03425.0137.00826.0293.01263.0453.01263s.0316-.00437.0453-.01263c.0136-.00827.0248-.02011.0322-.03425l.0875-.16c.8225-1.515 2.9713-1.5875 3.8925-.13.5538.875.4425 2.01245-.27 2.76245l-3.4988 3.6838c-.115.1212-.1737.1825-.2437.1963a.252025.252025 0 0 1-.09 0c-.07-.0138-.1287-.0751-.2437-.1963"/></mask><path fill-rule="evenodd" clip-rule="evenodd" d="M11.505 22.0025C13.535 20.9625 21 16.71 21 10.375 21 4.75 16.3337 1 11 1 5.845 1 1 4.75 1 10.375c0 6.335 7.465 10.5875 9.495 11.6275.1561.0807.3293.1228.505.1228.1757 0 .3489-.0421.505-.1228Zm-.7937-7.5563-3.4988-3.6837c-.21979-.2334-.38736-.5108-.49156-.81401a2.257445 2.257445 0 0 1-.11276-.9442 2.257517 2.257517 0 0 1 .28604-.90688 2.25745 2.25745 0 0 1 1.50374-1.09329 2.257583 2.257583 0 0 1 .95088.00756 2.25811 2.25811 0 0 1 .86346.39844c.2562.19261.4685.43759.6227.71863l.0875.16c.0074.01414.0186.02598.0322.03425.0137.00826.0293.01263.0453.01263s.0316-.00437.0453-.01263c.0136-.00827.0248-.02011.0322-.03425l.0875-.16c.8225-1.515 2.9713-1.5875 3.8925-.13.5538.875.4425 2.01245-.27 2.76245l-3.4988 3.6838c-.115.1212-.1737.1825-.2437.1963a.252025.252025 0 0 1-.09 0c-.07-.0138-.1287-.0751-.2437-.1963" fill="#004C74"/><path d="m11.505 22.0025-.456-.89-.0031.0016.4591.8884Zm-1.01 0 .4591-.8884-.0031-.0016-.456.89Zm-3.2825-11.24-.72796.6856.00288.0031.72508-.6887Zm3.6225-2.63375.8774-.47981-.0007-.00123-.8767.48104Zm.0875.16.8857-.46423-.0041-.00783-.0042-.00775-.8774.47981Zm.155 0-.8774-.47981-.0042.00775-.0041.00783.8857.46423Zm.0875-.16.8774.47981.0014-.00269-.8788-.47712Zm3.8925-.13-.8453.53429.0003.00047.845-.53476Zm-.27 2.76245-.725-.6887-.0001.0001.7251.6886Zm-3.4988 3.6838-.725-.6887-.0005.0005.7255.6882Zm-.2437.1963.18.9837.0127-.0025-.1927-.9812Zm-.09 0-.1928.9813.0128.0023.18-.9836Zm1.006 8.2512c1.052-.539 3.5187-1.9119 5.7362-3.9882C19.899 16.8428 22 13.9492 22 10.375h-2c0 2.7608-1.6315 5.161-3.6697 7.0694-2.0225 1.8937-4.3033 3.1671-5.2813 3.6681l.912 1.78ZM22 10.375C22 4.0962 16.7787 0 11 0v2c4.8888 0 9 3.4038 9 8.375h2ZM11 0C5.41201 0 0 4.08553 0 10.375h2C2 5.41447 6.27799 2 11 2V0ZM0 10.375c0 3.5742 2.10098 6.4678 4.30277 8.5293 2.21749 2.0763 4.68424 3.4492 5.73623 3.9882l.912-1.78c-.97801-.501-3.25876-1.7744-5.28127-3.6681C3.63152 15.536 2 13.1358 2 10.375H0Zm10.0359 12.5159c.298.154.6286.2344.9641.2344v-2c-.016 0-.0317-.0039-.0459-.0112l-.9182 1.7768Zm.9641.2344c.3355 0 .6661-.0804.9641-.2344l-.9182-1.7768c-.0142.0073-.0299.0112-.0459.0112v2Zm.4363-9.3677-3.49872-3.6838-1.45016 1.3774 3.49875 3.6837 1.45013-1.3773Zm-3.49585-3.6807a1.257762 1.257762 0 0 1-.27381-.45346l-1.8914.65006c.15036.4375.39216.8379.70931 1.1746l1.4559-1.3712Zm-.27381-.45346a1.25742 1.25742 0 0 1-.06282-.52595l-1.99129-.1864c-.04311.46055.01236.925.16271 1.36241l1.8914-.65006Zm-.06282-.52595a1.25759 1.25759 0 0 1 .15934-.50516L6.02528 7.6025a3.25747 3.25747 0 0 0-.41275 1.30859l1.99129.1864Zm.15934-.50516a1.257585 1.257585 0 0 1 .35321-.39473L6.94026 6.57996a3.257382 3.257382 0 0 0-.91498 1.02254l1.73788.98983Zm.35321-.39473c.14443-.105.30956-.17805.48442-.21427l-.40567-1.95842a3.25734 3.25734 0 0 0-1.25486.55505L8.11637 8.1976Zm.48442-.21427a1.257551 1.257551 0 0 1 .52967.00421l.43676-1.95172a3.257333 3.257333 0 0 0-1.3721-.01091l.40567 1.95842Zm.52967.00421c.17426.039.33821.11466.48095.22195l1.20169-1.59874c-.3698-.27793-.7945-.47392-1.24588-.57493l-.43676 1.95172Zm.48095.22195c.14274.10729.26099.24375.34689.4003l1.7534-.96208a3.257 3.257 0 0 0-.8986-1.03696L9.61141 8.20949Zm.34622.39907.08747.16 1.7548-.95962-.0875-.16-1.75477.95962Zm.07917.14442c.0921.17578.2306.32297.4003.42566l1.0352-1.71128a.912693.912693 0 0 1 .3359.35716l-1.7714.92846Zm.4003.42566c.1698.10271.3645.15699.5629.15699v-2c.1665 0 .3298.04555.4723.13173l-1.0352 1.71128ZM11 9.33563c.1984 0 .3931-.05428.5629-.15699l-1.0352-1.71128A.912599.912599 0 0 1 11 7.33563v2Zm.5629-.15699c.1697-.10269.3082-.24988.4003-.42566l-1.7714-.92846a.912693.912693 0 0 1 .3359-.35716l1.0352 1.71128Zm.392-.41008.0875-.16-1.7548-.95962-.0875.16 1.7548.95962Zm.0889-.16269c.4586-.8447 1.6557-.88401 2.1684-.07283l1.6906-1.06858c-1.3298-2.10383-4.4302-1.99813-5.6166.18717l1.7576.95424Zm2.1687-.07236c.309.48829.2466 1.12157-.15 1.53899l1.45 1.3775c1.0284-1.0826 1.1885-2.7243.39-3.98602l-1.69 1.06953Zm-.1501 1.53909-3.4987 3.6837 1.4501 1.3774 3.4988-3.6838-1.4502-1.3773Zm-3.4992 3.6842c-.0303.032-.048.0506-.0619.0646-.0141.0143-.0118.011.0005.0006.0232-.0198.1461-.1219.3505-.162l.3854 1.9625c.2744-.0539.4616-.1934.5605-.2776.0877-.0746.1723-.1656.2161-.2117l-1.4511-1.3764Zm.3018-.0992a.751511.751511 0 0 1 .27 0l-.36 1.9673c.1488.0272.3012.0272.45 0l-.36-1.9673Zm.2827.0024c.2044.0401.3273.1422.3505.162.0123.0104.0146.0137.0005-.0006-.0139-.014-.0316-.0326-.0619-.0646l-1.45111 1.3764c.04381.0461.12841.1371.21611.2117.0989.0842.2861.2237.5605.2776l.3854-1.9625Z" fill="#D2F5FF" mask="url(#a)"/></svg>