<svg width="16" height="15" fill="none" xmlns="http://www.w3.org/2000/svg"><path d="M8.22235.09259a7.407348 7.407348 0 0 0-2.83469.563856A7.407362 7.407362 0 0 0 2.98452 2.26217C1.59536 3.65133.814941 5.53543.814941 7.5c0 3.2741 2.125929 6.0519 5.066669 7.037.37037.0593.48889-.1703.48889-.3703v-1.2519c-2.05185.4445-2.48889-.9926-2.48889-.9926-.34074-.8592-.82222-1.0889-.82222-1.0889-.67408-.4592.05185-.4444.05185-.4444.74074.0518 1.13333.763 1.13333.763.64445 1.1259 1.73333.7925 2.15556.6148.06666-.4815.25926-.8074.46666-.9926-1.64444-.1852-3.37037-.82225-3.37037-3.64447 0-.82222.28148-1.48148.76297-2.00741-.07408-.18518-.33334-.95556.07407-1.95556 0 0 .62222-.2 2.03704.75556.58518-.16296 1.22222-.24444 1.85185-.24444.62963 0 1.26667.08148 1.85185.24444 1.4148-.95556 2.037-.75556 2.037-.75556.4074 1 .1482 1.77038.0741 1.95556.4815.52593.763 1.18519.763 2.00741 0 2.82963-1.7334 3.45187-3.38521 3.63707.26667.2296.51111.6814.51111 1.3703v2.0297c0 .2.1185.437.4963.3703 2.9407-.9926 5.0593-3.7629 5.0593-7.037 0-.97276-.1916-1.93599-.5639-2.83469-.3723-.89871-.9179-1.7153-1.6057-2.40314-.6879-.68784-1.5045-1.23347-2.4032-1.605724A7.407187 7.407187 0 0 0 8.22235.09259Z" fill="#000"/></svg>