<svg width="14" height="15" fill="none" xmlns="http://www.w3.org/2000/svg"><path d="M12.1853.777725c.393 0 .7698.156084 1.0476.433915.2778.27783.4339.65465.4339 1.04757V12.6296c0 .3929-.1561.7697-.4339 1.0475-.2778.2779-.6546.434-1.0476.434H1.81498c-.39292 0-.76974-.1561-1.047568-.434-.277832-.2778-.433916-.6546-.433916-1.0475V2.25921c0-.39292.156084-.76974.433916-1.04757C1.04524.933809 1.42206.777725 1.81498.777725H12.1853ZM11.815 12.2592V8.33328c0-.64045-.2544-1.25467-.7073-1.70753-.4529-.45287-1.0671-.70728-1.70754-.70728-.62963 0-1.36296.38518-1.71852.96296v-.82222H5.61498v6.19999h2.06666V8.60735c0-.57037.45926-1.03703 1.02963-1.03703.27504 0 .53882.10926.7333.30374.19448.19448.30374.45825.30374.73329v3.65185H11.815ZM3.20757 4.89624c.33005 0 .64658-.13111.87996-.36449.23337-.23337.36448-.5499.36448-.87995 0-.68889-.55555-1.25185-1.24444-1.25185-.33201 0-.65043.13189-.88519.36666-.23477.23476-.36666.55318-.36666.88519 0 .68889.56296 1.24444 1.25185 1.24444ZM4.2372 12.2592V6.05921H2.18535v6.19999H4.2372Z" fill="#D2F5FF"/></svg>