<svg width="28" height="23" fill="none" xmlns="http://www.w3.org/2000/svg"><mask id="a" style="mask-type:luminance" maskUnits="userSpaceOnUse" x="0" y="0" width="28" height="23"><path d="M14.625 21H3.375c-.49728 0-.97419-.1975-1.32583-.5492C1.69754 20.0992 1.5 19.6223 1.5 19.125V2.875c0-.49728.19754-.97419.54917-1.32583C2.40081 1.19754 2.87772 1 3.375 1h21.25c.4973 0 .9742.19754 1.3258.54917.3517.35164.5492.82855.5492 1.32583v8.7131" stroke="#fff" stroke-width="2" stroke-linecap="round" stroke-linejoin="round"/><path d="M1.5 2.875c0-.49728.19754-.97419.54917-1.32583C2.40081 1.19754 2.87772 1 3.375 1h21.25c.4973 0 .9742.19754 1.3258.54917.3517.35164.5492.82855.5492 1.32583V8.5h-25V2.875Z" fill="#fff" stroke="#fff" stroke-width="2"/><path d="M19 17.875h7.5m-3.75-3.75v7.5" stroke="#fff" stroke-width="2" stroke-linecap="round" stroke-linejoin="round"/><path d="M4 4.75c0-.69036.55964-1.25 1.25-1.25s1.25.55964 1.25 1.25S5.94036 6 5.25 6 4 5.44036 4 4.75ZM7.75 4.75c0-.69036.55964-1.25 1.25-1.25s1.25.55964 1.25 1.25S9.69036 6 9 6s-1.25-.55964-1.25-1.25Z" fill="#000"/></mask><g mask="url(#a)"><path d="M-1-4h30v30H-1V-4Z" fill="#fff"/></g></svg>