<svg width="26" height="26" fill="none" xmlns="http://www.w3.org/2000/svg"><path d="M5.49996 10.5v3.75a1.249966 1.249966 0 0 1-.1325.56L3.77496 18H22.23l-1.595-3.19c-.088-.1736-.1343-.3654-.135-.56V10.5c0-1.98912-.7902-3.89678-2.1967-5.3033C16.8967 3.79018 14.9891 3 13 3c-1.9892 0-3.89682.79018-5.30334 2.1967-1.40653 1.40652-2.1967 3.31418-2.1967 5.3033Zm2.5 10h-6.25c-.21316 0-.42278-.0545-.60893-.1584a1.249274 1.249274 0 0 1-.454643-.4349c-.111983-.1814-.175722-.3884-.185161-.6013a1.250134 1.250134 0 0 1 .131232-.6154l2.367502-4.735V10.5c0-2.65216 1.05357-5.1957 2.92893-7.07107C7.80425 1.55357 10.3478.5 13 .5c2.6521 0 5.1957 1.05357 7.071 2.92893C21.9464 5.3043 23 7.84784 23 10.5v3.455l2.3675 4.735c.0955.1906.1406.4024.1312.6154-.0094.2129-.0732.4199-.1852.6013-.112.1814-.2685.3311-.4546.4349-.1862.1039-.3958.1584-.6089.1584H18c0 1.3261-.5268 2.5979-1.4645 3.5355C15.5978 24.9732 14.326 25.5 13 25.5c-1.3261 0-2.5979-.5268-3.53558-1.4645-.93768-.9376-1.46446-2.2094-1.46446-3.5355Zm7.50004 0h-5c0 .663.2634 1.2989.7322 1.7678C11.701 22.7366 12.3369 23 13 23c.663 0 1.2989-.2634 1.7677-.7322.4689-.4689.7323-1.1048.7323-1.7678Z" fill="#fff"/></svg>