<svg width="13" height="12" fill="none" xmlns="http://www.w3.org/2000/svg"><path d="M11.8191 12 7.56422 7.8c-.3377.26667-.72604.47778-1.16504.63333-.439.15556-.90613.23334-1.40141.23334-1.22695 0-2.26535-.41945-3.1152-1.25834S.607788 5.54444.607788 4.33333c0-1.21111.424932-2.23611 1.274782-3.075C2.73242.419444 3.77082 0 4.99777 0c1.22694 0 2.26534.419444 3.11519 1.25833.84986.83889 1.27478 1.86389 1.27478 3.075 0 .48889-.07879.95-.23638 1.38334-.15759.43333-.37146.81666-.64161 1.15l4.25495 4.20003-.9456.9333ZM4.99777 7.33333c.84422 0 1.56182-.29166 2.15277-.875.59096-.58333.88644-1.29166.88644-2.125 0-.83333-.29548-1.54166-.88644-2.125-.59095-.58333-1.30855-.875-2.15277-.875-.84423 0-1.56182.29167-2.15278.875-.59096.58334-.88644 1.29167-.88644 2.125 0 .83334.29548 1.54167.88644 2.125.59096.58334 1.30855.875 2.15278.875Z" fill="#1D1B20"/></svg>