<svg width="22" height="20" fill="none" xmlns="http://www.w3.org/2000/svg"><path d="m8.25 20-.4-3.2c-.21667-.0833-.42067-.1833-.612-.3-.19134-.1167-.379-.2417-.563-.375L3.7 17.375l-2.750003-4.75L3.525 10.675c-.01667-.1167-.025-.229-.025-.337v-.675c0-.10867.00833-.22133.025-.338L.949997 7.375 3.7 2.625l2.975 1.25c.18333-.13333.375-.25833.575-.375.2-.11667.4-.21667.6-.3l.4-3.2h5.5l.4 3.2c.2167.08333.421.18333.613.3s.3793.24167.562.375l2.975-1.25 2.75 4.75-2.575 1.95c.0167.11667.025.22933.025.338v.674c0 .1087-.0167.2213-.05.338l2.575 1.95-2.75 4.75-2.95-1.25c-.1833.1333-.375.2583-.575.375-.2.1167-.4.2167-.6.3l-.4 3.2h-5.5Zm2.8-6.5c.9667 0 1.7917-.3417 2.475-1.025.6833-.6833 1.025-1.5083 1.025-2.475 0-.96667-.3417-1.79167-1.025-2.475-.6833-.68333-1.5083-1.025-2.475-1.025-.9833 0-1.81267.34167-2.488 1.025C7.88666 8.20833 7.54933 9.03333 7.55 10c.00066.9667.33833 1.7917 1.013 2.475.67466.6833 1.5037 1.025 2.487 1.025Z" fill="#000"/></svg>