<svg width="15" height="15" fill="none" xmlns="http://www.w3.org/2000/svg"><path d="M11.815 14.8517c-.6173 0-1.142-.216-1.5741-.6481-.43211-.4321-.64815-.9568-.64815-1.5741 0-.0741.01851-.2469.05555-.5185L4.4446 9.07396c-.19753.18519-.42593.33037-.68519.43556-.25926.10518-.53703.15753-.83333.15704-.61728 0-1.14198-.21605-1.57407-.64815-.432103-.4321-.648153-.95679-.648153-1.57408 0-.61728.21605-1.14197.648153-1.57407.43209-.4321.95679-.64815 1.57407-.64815.2963 0 .57407.05259.83333.15778.25926.10518.48766.25012.68519.43481l5.2037-3.03703c-.02469-.08642-.04-.16963-.04592-.24963-.00593-.08-.00914-.16963-.00963-.26889 0-.61729.21604-1.14198.64815-1.574076.4321-.432098.9568-.648148 1.5741-.648148.6173 0 1.1419.21605 1.574.648148.4321.432096.6482.956786.6482 1.574076 0 .61728-.2161 1.14197-.6482 1.57407-.4321.4321-.9567.64815-1.574.64815-.2963 0-.5741-.05259-.8334-.15778-.2592-.10518-.4876-.25012-.6852-.43481L5.09275 6.92582c.02469.08641.04024.16987.04666.25037.00642.08049.00939.16987.00889.26814-.00049.09827-.00345.1879-.00889.26889-.00543.08099-.02098.1642-.04666.24963l5.20365 3.03705c.1976-.1852.426-.3301.6852-.4348.2593-.1047.5371-.1573.8334-.1578.6173 0 1.1419.216 1.574.6481.4321.4321.6482.9568.6482 1.5741 0 .6173-.2161 1.142-.6482 1.5741-.4321.4321-.9567.6481-1.574.6481Z" fill="#D2F5FF"/></svg>