<svg width="17" height="15" fill="none" xmlns="http://www.w3.org/2000/svg"><path d="M5.41491 14.0844c6.14959 0 9.51479-5.09997 9.51479-9.51479 0-.14296 0-.28666-.0066-.42963.6551-.47481 1.2205-1.0625 1.6696-1.73555-.6119.26946-1.26.44741-1.9237.52815.6995-.41827 1.2233-1.07634 1.4741-1.85185-.6572.38916-1.3763.66252-2.126.80814-.3124-.33383-.6902-.59982-1.1098-.78141-.4197-.18159-.8722-.274906-1.3294-.274142-.887.000784-1.73739.353472-2.36457.980652-.62717.62717-.97986 1.47758-.98065 2.36453 0 .26074.0326.51556.08445.76297A9.496396 9.496396 0 0 1 4.49925 3.9269a9.496404 9.496404 0 0 1-3.07472-2.48025C.997736 2.18363.867408 3.05542 1.06001 3.885c.19261.82958.69371 1.55477 1.40156 2.02832a3.407387 3.407387 0 0 1-1.513331-.41704v.04519c.000812.77191.268091 1.51988.756661 2.1175.48857.59762 1.16847 1.00825 1.92482 1.1625a3.259469 3.259469 0 0 1-.88074.11778c-.21482 0-.42346-.01976-.62593-.05926.21274.66493.62845 1.24651 1.18872 1.66301.56028.4165 1.23696.6471 1.93499.6592-1.18422.9312-2.64758 1.4364-4.15408 1.4341a6.684202 6.684202 0 0 1-.796293-.0452c1.528893.9756 3.304863 1.4938 5.118523 1.4933Z" fill="#000"/></svg>