<svg width="34" height="34" fill="none" xmlns="http://www.w3.org/2000/svg"><path d="M16.8204.333374c2.1898 0 4.2898.877976 5.8382 2.440776 1.5484 1.5628 2.4183 3.68242 2.4183 5.89256 0 2.21009-.8699 4.32979-2.4183 5.89259C21.1102 16.1221 19.0102 17 16.8204 17c-2.1898 0-4.2899-.8779-5.8383-2.4407-1.54837-1.5628-2.41825-3.6825-2.41825-5.89259 0-2.21014.86988-4.32976 2.41825-5.89256 1.5484-1.5628 3.6485-2.440776 5.8383-2.440776Zm0 20.833326c9.1235 0 16.5131 3.7292 16.5131 8.3333v4.1667H.307312V29.5c0-4.6041 7.389598-8.3333 16.513088-8.3333Z" fill="#000"/></svg>